# xmcd CD database file
#
# Track frame offsets:
#	150
#	21980
#	39760
#	62031
#	77720
#	110634
#	130457
#	155797
#	184756
#	205709
#
# Disc length: 3020 seconds
#
# Revision: 0
# Processed by: cddbd v1.5.1PL2 Copyright (c) Steve Scherf et al.
# Submitted via: CDex 1.51
#
DISCID=860bca0a
DTITLE=Ralph Altrieth and Davide Baldo - Fra Acqua e Cielo
DYEAR=2005
DGENRE=Jazz
TTITLE0=Leoni Contenti
TTITLE1=Are You Sure
TTITLE2=Ma Dépression Se Promène
TTITLE3=Foolish Heart
TTITLE4=September Song
TTITLE5=Überall Sand
TTITLE6=Heroe Azzuroe
TTITLE7=Ricordo Pop
TTITLE8=Well You Needn't
TTITLE9=Fra Acqua E Cielo
EXTD=YEAR: 2005
EXTT0=
EXTT1=
EXTT2=
EXTT3=
EXTT4=
EXTT5=
EXTT6=
EXTT7=
EXTT8=
EXTT9=
PLAYORDER=
